<svg version="1" xmlns="http://www.w3.org/2000/svg" viewBox="0 0 48 48"><g fill="#37474F"><path d="M38.5 44.6l-4-4 2.1-2.1 4 4c.6.6.6 1.5 0 2.1-.5.5-1.5.5-2.1 0zM9.5 44.6l4-4-2.1-2.1-4 4c-.6.6-.6 1.5 0 2.1.5.5 1.5.5 2.1 0z"/></g><circle fill="#C62828" cx="24" cy="24" r="20"/><circle fill="#eee" cx="24" cy="24" r="16"/><path fill="#E53935" d="M15.096 33.48l-.566-.566 9.191-9.191.566.565z"/><path d="M23 11h2v13h-2z"/><path d="M31.285 29.654L29.66 31.28l-6.504-6.504 1.626-1.627z"/><circle cx="24" cy="24" r="2"/><circle fill="#C62828" cx="24" cy="24" r="1"/><path fill="#37474F" d="M22 1h4v3h-4z"/><g fill="#37474F"><path d="M44.4 16.2c2.5-3.5 2.1-8.4-1-11.5-3.1-3.1-8-3.5-11.5-1l12.5 12.5zM3.6 16.2c-2.5-3.5-2.1-8.4 1-11.5 3.1-3.1 8-3.5 11.5-1L3.6 16.2z"/></g></svg>