<svg xmlns="http://www.w3.org/2000/svg" viewBox="0 0 48 48"><path fill="#ff9800" d="m24 37-5-6v-6h10v6z"/><g fill="#ffa726"><circle cx="33" cy="19" r="2"/><circle cx="15" cy="19" r="2"/></g><path fill="#ffb74d" d="M33 13c0-7.6-18-5-18 0v7c0 5 4 9 9 9s9-4 9-9z"/><path fill="#424242" d="M24 4c-6.1 0-10 4.9-10 11v2.3l2 1.7v-5l12-4 4 4v5l2-1.7V15c0-4-1-8-6-9l-1-2z"/><g fill="#784719"><circle cx="28" cy="19" r="1"/><circle cx="20" cy="19" r="1"/></g><path fill="#fff" d="m24 43-5-12 5 1 5-1z"/><path fill="#d32f2f" d="m23 35-.7 4.5 1.7 4 1.7-4L25 35l1-1-2-2-2 2z"/><path fill="#546e7a" d="m29 31-5 12-5-12S8 33 8 44h32c0-11-11-13-11-13"/></svg>