<svg version="1" xmlns="http://www.w3.org/2000/svg" viewBox="0 0 48 48"><path fill="#CFD8DC" d="M5 38V14h38v24c0 2.2-1.8 4-4 4H9c-2.2 0-4-1.8-4-4z"/><path fill="#F44336" d="M43 10v6H5v-6c0-2.2 1.8-4 4-4h30c2.2 0 4 1.8 4 4z"/><g fill="#B71C1C"><circle cx="33" cy="10" r="3"/><circle cx="15" cy="10" r="3"/></g><g fill="#B0BEC5"><path d="M33 3c-1.1 0-2 .9-2 2v5c0 1.1.9 2 2 2s2-.9 2-2V5c0-1.1-.9-2-2-2zM15 3c-1.1 0-2 .9-2 2v5c0 1.1.9 2 2 2s2-.9 2-2V5c0-1.1-.9-2-2-2z"/></g><g fill="#90A4AE"><path d="M13 20h4v4h-4zM19 20h4v4h-4zM25 20h4v4h-4zM31 20h4v4h-4zM13 26h4v4h-4zM19 26h4v4h-4zM25 26h4v4h-4zM31 26h4v4h-4zM13 32h4v4h-4zM19 32h4v4h-4zM25 32h4v4h-4zM31 32h4v4h-4z"/></g></svg>