<svg xmlns="http://www.w3.org/2000/svg" viewBox="0 0 48 48"><path fill="#607d8b" d="M20 42H10c-2.2 0-4-1.8-4-4V15c0-5 4-9 9-9s9 4 9 9v23c0 2.2-1.8 4-4 4"/><circle cx="15" cy="15" r="7" fill="#455a64"/><circle cx="15" cy="15" r="5.2" fill="#42a5f5"/><path fill="#90caf9" d="M18.3 13c-.8-.9-2-1.5-3.3-1.5s-2.4.5-3.3 1.5c-.3.4-.3.9.1 1.2s.9.3 1.2-.1c1-1.2 2.9-1.2 3.9 0 .2.2.4.3.7.3.2 0 .4-.1.6-.2.4-.3.4-.9.1-1.2"/><path fill="#607d8b" d="M40 31H28c-1.1 0-2-.9-2-2V19c0-1.1.9-2 2-2h12c1.1 0 2 .9 2 2v10c0 1.1-.9 2-2 2"/><path fill="#455a64" d="M24 19h2v10h-2z"/><path fill="#03a9f4" d="M28 19h12v10H28z"/><path fill="#4fc3f7" d="M33 22.2 29 28h8z"/><g fill="#b3e5fc"><circle cx="37.5" cy="21.5" r="1"/><path d="M36 24.2 33 28h6z"/></g><circle cx="15" cy="35" r="3" fill="#455a64"/><circle cx="15" cy="35" r="2" fill="#f44336"/></svg>