<svg xmlns="http://www.w3.org/2000/svg" version="1" viewBox="0 0 48 48"><path fill="#512DA8" d="M33.9 12.1H14.2L17.6 7c.4-.6 1-.9 1.7-.9h9.6c.7 0 1.3.3 1.7.9z"/><path fill="#8667C4" d="M14 11H8V9.2C8 8.5 8.5 8 9.2 8h3.6c.7 0 1.2.5 1.2 1.2z"/><path fill="#5E35B1" d="M40 42H8c-2.2 0-4-1.8-4-4V14c0-2.2 1.8-4 4-4h32c2.2 0 4 1.8 4 4v24c0 2.2-1.8 4-4 4"/><circle cx="24" cy="26" r="12" fill="#512DA8"/><circle cx="24" cy="26" r="9" fill="#B388FF"/><path fill="#C7A7FF" d="M28.8 23c-1.2-1.4-3-2.2-4.8-2.2s-3.6.8-4.8 2.2c-.5.5-.4 1.3.1 1.8s1.3.4 1.8-.1c1.5-1.7 4.3-1.7 5.8 0 .3.3.6.4 1 .4q.45 0 .9-.3c.4-.4.5-1.3 0-1.8"/><ellipse cx="11" cy="13.5" fill="#8667C4" rx="2" ry="1.5"/><path fill="#8BC34A" d="M48 33.8c0-1.3-1.1-2.4-2.4-2.4H42c-.4 0-.7-.5-.4-.8.4-.6.5-1.3.4-2.1-.2-1.2-1.1-2.1-2.3-2.4-2-.4-3.7 1-3.7 2.9 0 .6.2 1.1.4 1.6.2.4 0 .8-.5.8h-3.6c-1.3 0-2.4 1.1-2.4 2.4V37c0 .4.5.7.8.4.6-.4 1.3-.5 2.1-.4 1.2.2 2.1 1.1 2.4 2.3.4 1.9-1.1 3.6-2.9 3.6-.6 0-1.1-.2-1.6-.4-.4-.2-.8 0-.8.5v2.6c0 1.3 1.1 2.4 2.4 2.4h13.2c1.3 0 2.4-1.1 2.4-2.4V33.8z"/></svg>