<svg xmlns="http://www.w3.org/2000/svg" viewBox="0 0 48 48"><path fill="#512da8" d="M33.9 12.1H14.2L17.6 7c.4-.6 1-.9 1.7-.9h9.6c.7 0 1.3.3 1.7.9z"/><path fill="#8667c4" d="M14 11H8V9.2C8 8.5 8.5 8 9.2 8h3.6c.7 0 1.2.5 1.2 1.2z"/><path fill="#5e35b1" d="M40 42H8c-2.2 0-4-1.8-4-4V14c0-2.2 1.8-4 4-4h32c2.2 0 4 1.8 4 4v24c0 2.2-1.8 4-4 4"/><circle cx="24" cy="26" r="12" fill="#512da8"/><circle cx="24" cy="26" r="9" fill="#b388ff"/><g fill="#616161"><path d="m38.912 40.703 1.696-1.697 7.353 7.353-1.697 1.696z"/><circle cx="35" cy="35" r="10"/></g><path fill="#37474f" d="m42.305 44.107 1.697-1.697 3.96 3.959-1.698 1.697z"/><circle cx="35" cy="35" r="8" fill="#64b5f6"/><path fill="#bbdefb" d="M39.3 31.4c-1.1-1.3-2.6-2-4.2-2s-3.2.7-4.2 2c-.2.3-.2.6.1.9.3.2.6.2.9-.1.8-1 2-1.5 3.3-1.5s2.5.6 3.3 1.5c.1.1.3.2.5.2.1 0 .3 0 .4-.1.1-.2.1-.6-.1-.9"/><path fill="#c7a7ff" d="M29 23c-1.2-1.4-3-2.2-4.8-2.2s-3.6.8-4.8 2.2c-.5.5-.4 1.3.1 1.8s1.3.4 1.8-.1c1.5-1.7 4.3-1.7 5.8 0 .3.3.6.4 1 .4q.45 0 .9-.3c.4-.4.5-1.3 0-1.8"/><ellipse cx="11" cy="13.5" fill="#8667c4" rx="2" ry="1.5"/></svg>