<svg version="1" xmlns="http://www.w3.org/2000/svg" viewBox="0 0 48 48"><path fill="#3F51B5" d="M43.4 8.3L4 15l-.3-2C3.3 10.8 4.8 8.8 7 8.4l31.6-5.3c2.2-.4 4.2 1.1 4.6 3.3l.2 1.9zM40 41H8c-2.2 0-4-1.8-4-4V15h40v22c0 2.2-1.8 4-4 4z"/><g fill="#9FA8DA"><path d="M18.8 6.4l4.9 5.3 4-.7-5-5.3zM10.9 7.7l4.9 5.3 4-.7-5-5.2zM26.7 5.1l4.9 5.2 3.9-.6-4.9-5.3zM34.5 3.8l5 5.2 3.9-.7-4.9-5.2z"/></g><circle fill="#9FA8DA" cx="7.5" cy="11.5" r="1.5"/><g fill="#9FA8DA"><path d="M40 15l-4 6h4l4-6zM32 15l-4 6h4l4-6zM24 15l-4 6h4l4-6zM16 15l-4 6h4l4-6zM8 15l-4 6h4l4-6z"/></g></svg>