<svg version="1" xmlns="http://www.w3.org/2000/svg" viewBox="0 0 48 48"><g fill="#81D4FA"><path d="M24 28h18v14H24zM6 10h12v32H6z"/></g><g fill="#1976D2"><path d="M16 8h-2c0 1.1-.9 2-2 2s-2-.9-2-2H8c0 1.1-.9 2-2 2v2c1.2 0 2.3-.5 3-1.4.7.8 1.8 1.4 3 1.4s2.3-.5 3-1.4c.7.8 1.8 1.4 3 1.4v-2c-1.1 0-2-.9-2-2zM16 14h-2c0 1.1-.9 2-2 2s-2-.9-2-2H8c0 1.1-.9 2-2 2v2c1.2 0 2.3-.5 3-1.4.7.8 1.8 1.4 3 1.4s2.3-.5 3-1.4c.7.8 1.8 1.4 3 1.4v-2c-1.1 0-2-.9-2-2zM16 20h-2c0 1.1-.9 2-2 2s-2-.9-2-2H8c0 1.1-.9 2-2 2v2c1.2 0 2.3-.5 3-1.4.7.8 1.8 1.4 3 1.4s2.3-.5 3-1.4c.7.8 1.8 1.4 3 1.4v-2c-1.1 0-2-.9-2-2zM16 26h-2c0 1.1-.9 2-2 2s-2-.9-2-2H8c0 1.1-.9 2-2 2v2c1.2 0 2.3-.5 3-1.4.7.8 1.8 1.4 3 1.4s2.3-.5 3-1.4c.7.8 1.8 1.4 3 1.4v-2c-1.1 0-2-.9-2-2zM16 32h-2c0 1.1-.9 2-2 2s-2-.9-2-2H8c0 1.1-.9 2-2 2v2c1.2 0 2.3-.5 3-1.4.7.8 1.8 1.4 3 1.4s2.3-.5 3-1.4c.7.8 1.8 1.4 3 1.4v-2c-1.1 0-2-.9-2-2zM16 38h-2c0 1.1-.9 2-2 2s-2-.9-2-2H8c0 1.1-.9 2-2 2v2c1.2 0 2.3-.5 3-1.4.7.8 1.8 1.4 3 1.4s2.3-.5 3-1.4c.7.8 1.8 1.4 3 1.4v-2c-1.1 0-2-.9-2-2zM40 32h-2c0 1.1-.9 2-2 2s-2-.9-2-2h-2c0 1.1-.9 2-2 2s-2-.9-2-2h-2c0 1.1-.9 2-2 2v2c1.2 0 2.3-.5 3-1.4.7.8 1.8 1.4 3 1.4s2.3-.5 3-1.4c.7.8 1.8 1.4 3 1.4s2.3-.5 3-1.4c.7.8 1.8 1.4 3 1.4v-2c-1.1 0-2-.9-2-2zM40 26h-2c0 1.1-.9 2-2 2s-2-.9-2-2h-2c0 1.1-.9 2-2 2s-2-.9-2-2h-2c0 1.1-.9 2-2 2v2c1.2 0 2.3-.5 3-1.4.7.8 1.8 1.4 3 1.4s2.3-.5 3-1.4c.7.8 1.8 1.4 3 1.4s2.3-.5 3-1.4c.7.8 1.8 1.4 3 1.4v-2c-1.1 0-2-.9-2-2zM40 38h-2c0 1.1-.9 2-2 2s-2-.9-2-2h-2c0 1.1-.9 2-2 2v2c1.2 0 2.3-.5 3-1.4.7.8 1.8 1.4 3 1.4s2.3-.5 3-1.4c.7.8 1.8 1.4 3 1.4v-2c-1.1 0-2-.9-2-2z"/></g><path fill="#455A64" d="M25.1 9.2L31.5 42H18V6h3.2c1.9 0 3.6 1.4 3.9 3.2z"/></svg>