<svg xmlns="http://www.w3.org/2000/svg" version="1" viewBox="0 0 48 48"><path fill="#FFB74D" d="M10 12c-2.8 0-5-2.2-5-5s2.2-5 5-5 5 2.2 5 5-2.2 5-5 5"/><path fill="#607D8B" d="M2 22v8l3 2 1 14h8l1-14 3-2v-8c0-4.4-3.6-8-8-8s-8 3.6-8 8"/><g fill="#263238"><path d="M22.4 40.4c-.6 2.5-1 3.6-2.4 3.6-.6 0-1.2-.5-1.9-1.1-1-.8-2.2-1.9-4.1-1.9v2c1.1 0 1.9.7 2.8 1.4S18.7 46 20 46c3.1 0 3.8-2.9 4.4-5.2.6-2.6 1-3.8 2.6-3.8v-2c-3.3 0-4.1 3.1-4.6 5.4"/><path d="M14.4 40H10v4h4.1z"/></g><circle cx="36" cy="36" r="10" fill="#4CAF50"/><path fill="#fff" d="M35 34c.1.2.1.3.3.4.1.1.3.2.5.4.2.1.5.2.8.3.5.2.9.4 1.3.6s.7.4 1 .7.5.6.7.9c.2.4.2.8.2 1.3 0 .4-.1.8-.2 1.2q-.15.6-.6.9-.45.45-.9.6-.6.3-1.2.3v1.5h-1.2v-1.5q-.6 0-1.2-.3c-.4-.2-.7-.4-1-.6-.3-.3-.5-.6-.7-1.1q-.3-.6-.3-1.5h2.2c0 .4 0 .7.1.9s.2.4.4.6c.2.1.3.2.5.3s.4.1.6.1.4 0 .6-.1.3-.2.4-.3.2-.3.3-.4c.1-.2.1-.3.1-.5s0-.4-.1-.6-.1-.3-.3-.4c-.1-.1-.3-.3-.5-.4s-.4-.2-.7-.3c-.5-.2-.9-.4-1.3-.6s-.7-.4-1-.7-.5-.6-.7-.9c-.2-.4-.2-.8-.2-1.3 0-.4.1-.8.2-1.2.1-.3.3-.7.6-.9q.45-.45.9-.6.6-.3 1.2-.3v-1.6H37v1.6c.4.1.8.2 1.2.4s.6.4.9.7c.2.3.4.6.6 1 .1.4.2.9.2 1.4h-2.2c0-.6-.1-1-.4-1.3-.2-.3-.6-.4-1-.4-.2 0-.4 0-.6.1s-.3.2-.4.3q-.3 0-.3.3c0 .3-.1.3-.1.5s0 .4.1.5"/></svg>