<svg version="1" xmlns="http://www.w3.org/2000/svg" viewBox="0 0 48 48"><path d="M38 7H10c-1.1 0-2 .9-2 2v6c0 1.1.9 2 2 2h28c1.1 0 2-.9 2-2V9c0-1.1-.9-2-2-2zm0 12H10c-1.1 0-2 .9-2 2v6c0 1.1.9 2 2 2h28c1.1 0 2-.9 2-2v-6c0-1.1-.9-2-2-2zm0 12H10c-1.1 0-2 .9-2 2v6c0 1.1.9 2 2 2h28c1.1 0 2-.9 2-2v-6c0-1.1-.9-2-2-2z" fill="#D1C4E9"/><circle fill="#F44336" cx="38" cy="38" r="10"/><g fill="#fff"><path d="m43.31 41.181-2.12 2.121-8.484-8.483 2.12-2.121z"/><path d="m34.819 43.31-2.121-2.12 8.483-8.484 2.121 2.12z"/></g></svg>