<svg xmlns="http://www.w3.org/2000/svg" version="1" viewBox="0 0 48 48"><path fill="#D1C4E9" d="M38 7H10c-1.1 0-2 .9-2 2v6c0 1.1.9 2 2 2h28c1.1 0 2-.9 2-2V9c0-1.1-.9-2-2-2m0 12H10c-1.1 0-2 .9-2 2v6c0 1.1.9 2 2 2h28c1.1 0 2-.9 2-2v-6c0-1.1-.9-2-2-2m0 12H10c-1.1 0-2 .9-2 2v6c0 1.1.9 2 2 2h28c1.1 0 2-.9 2-2v-6c0-1.1-.9-2-2-2"/><circle cx="38" cy="38" r="10" fill="#F44336"/><g fill="#fff"><path d="m43.31 41.182-2.12 2.12-8.484-8.483 2.12-2.121z"/><path d="m34.819 43.31-2.121-2.12 8.484-8.484 2.12 2.12z"/></g></svg>