<svg xmlns="http://www.w3.org/2000/svg" viewBox="0 0 48 48"><path fill="#cfd8dc" d="M5 38V14h38v24c0 2.2-1.8 4-4 4H9c-2.2 0-4-1.8-4-4"/><path fill="#f44336" d="M43 10v6H5v-6c0-2.2 1.8-4 4-4h30c2.2 0 4 1.8 4 4"/><g fill="#b71c1c"><circle cx="33" cy="10" r="3"/><circle cx="15" cy="10" r="3"/></g><path fill="#b0bec5" d="M33 3c-1.1 0-2 .9-2 2v5c0 1.1.9 2 2 2s2-.9 2-2V5c0-1.1-.9-2-2-2M15 3c-1.1 0-2 .9-2 2v5c0 1.1.9 2 2 2s2-.9 2-2V5c0-1.1-.9-2-2-2m-2 18h6v6h-6zm8 0h6v6h-6zm8 0h6v6h-6zm-16 8h6v6h-6zm8 0h6v6h-6z"/><path fill="#f44336" d="M29 29h6v6h-6z"/></svg>