<svg version="1" xmlns="http://www.w3.org/2000/svg" viewBox="0 0 48 48"><path fill="#FFA000" d="M13.324 45.003L3.002 34.68 34.676 3.007 44.998 13.33z"/><g fill="#9E6400"><path d="M22.803 24.188l-4.666-4.666 1.414-1.414 4.666 4.666zM24.813 18.198l-2.616-2.616 1.414-1.414 2.616 2.616zM30.804 16.188l-4.666-4.666 1.414-1.414 4.666 4.666zM30.155 7.543l1.415-1.414 2.615 2.616-1.414 1.414zM8.81 34.198l-2.616-2.616 1.414-1.414 2.616 2.616zM14.801 32.188l-4.666-4.666 1.414-1.414 4.666 4.666zM16.812 26.198l-2.616-2.616 1.414-1.414 2.616 2.616z"/></g></svg>