<svg version="1" xmlns="http://www.w3.org/2000/svg" viewBox="0 0 48 48"><g fill="#FFA000"><path d="M38 13c-3.3 0-6-.9-6-2v2c0 1.1 2.7 2 6 2s6-.9 6-2v-2c0 1.1-2.7 2-6 2z"/><path d="M38 10c-3.3 0-6-.9-6-2v2c0 1.1 2.7 2 6 2s6-.9 6-2V8c0 1.1-2.7 2-6 2zM38 16c-3.3 0-6-.9-6-2v2c0 1.1 2.7 2 6 2s6-.9 6-2v-2c0 1.1-2.7 2-6 2z"/><path d="M38 19c-3.3 0-6-.9-6-2v2c0 1.1 2.7 2 6 2s6-.9 6-2v-2c0 1.1-2.7 2-6 2z"/><path d="M38 22c-3.3 0-6-.9-6-2v2c0 1.1 2.7 2 6 2s6-.9 6-2v-2c0 1.1-2.7 2-6 2z"/><path d="M38 25c-3.3 0-6-.9-6-2v2c0 1.1 2.7 2 6 2s6-.9 6-2v-2c0 1.1-2.7 2-6 2z"/><path d="M38 28c-3.3 0-6-.9-6-2v2c0 1.1 2.7 2 6 2s6-.9 6-2v-2c0 1.1-2.7 2-6 2z"/><path d="M38 31c-3.3 0-6-.9-6-2v2c0 1.1 2.7 2 6 2s6-.9 6-2v-2c0 1.1-2.7 2-6 2z"/><path d="M38 34c-3.3 0-6-.9-6-2v2c0 1.1 2.7 2 6 2s6-.9 6-2v-2c0 1.1-2.7 2-6 2z"/><path d="M38 37c-3.3 0-6-.9-6-2v2c0 1.1 2.7 2 6 2s6-.9 6-2v-2c0 1.1-2.7 2-6 2z"/><path d="M38 40c-3.3 0-6-.9-6-2v2c0 1.1 2.7 2 6 2s6-.9 6-2v-2c0 1.1-2.7 2-6 2z"/></g><g fill="#FFC107"><ellipse cx="38" cy="8" rx="6" ry="2"/><path d="M38 12c-2.8 0-5.1-.6-5.8-1.5-.1.2-.2.3-.2.5 0 1.1 2.7 2 6 2s6-.9 6-2c0-.2-.1-.3-.2-.5-.7.9-3 1.5-5.8 1.5zM38 15c-2.8 0-5.1-.6-5.8-1.5-.1.2-.2.3-.2.5 0 1.1 2.7 2 6 2s6-.9 6-2c0-.2-.1-.3-.2-.5-.7.9-3 1.5-5.8 1.5zM38 18c-2.8 0-5.1-.6-5.8-1.5-.1.2-.2.3-.2.5 0 1.1 2.7 2 6 2s6-.9 6-2c0-.2-.1-.3-.2-.5-.7.9-3 1.5-5.8 1.5zM38 21c-2.8 0-5.1-.6-5.8-1.5-.1.2-.2.3-.2.5 0 1.1 2.7 2 6 2s6-.9 6-2c0-.2-.1-.3-.2-.5-.7.9-3 1.5-5.8 1.5zM38 24c-2.8 0-5.1-.6-5.8-1.5-.1.2-.2.3-.2.5 0 1.1 2.7 2 6 2s6-.9 6-2c0-.2-.1-.3-.2-.5-.7.9-3 1.5-5.8 1.5zM38 27c-2.8 0-5.1-.6-5.8-1.5-.1.2-.2.3-.2.5 0 1.1 2.7 2 6 2s6-.9 6-2c0-.2-.1-.3-.2-.5-.7.9-3 1.5-5.8 1.5zM38 30c-2.8 0-5.1-.6-5.8-1.5-.1.2-.2.3-.2.5 0 1.1 2.7 2 6 2s6-.9 6-2c0-.2-.1-.3-.2-.5-.7.9-3 1.5-5.8 1.5zM38 33c-2.8 0-5.1-.6-5.8-1.5-.1.2-.2.3-.2.5 0 1.1 2.7 2 6 2s6-.9 6-2c0-.2-.1-.3-.2-.5-.7.9-3 1.5-5.8 1.5zM38 36c-2.8 0-5.1-.6-5.8-1.5-.1.2-.2.3-.2.5 0 1.1 2.7 2 6 2s6-.9 6-2c0-.2-.1-.3-.2-.5-.7.9-3 1.5-5.8 1.5zM38 39c-2.8 0-5.1-.6-5.8-1.5-.1.2-.2.3-.2.5 0 1.1 2.7 2 6 2s6-.9 6-2c0-.2-.1-.3-.2-.5-.7.9-3 1.5-5.8 1.5z"/></g><g fill="#FFA000"><path d="M10 19c-3.3 0-6-.9-6-2v2c0 1.1 2.7 2 6 2s6-.9 6-2v-2c0 1.1-2.7 2-6 2z"/><path d="M10 16c-3.3 0-6-.9-6-2v2c0 1.1 2.7 2 6 2s6-.9 6-2v-2c0 1.1-2.7 2-6 2zM10 22c-3.3 0-6-.9-6-2v2c0 1.1 2.7 2 6 2s6-.9 6-2v-2c0 1.1-2.7 2-6 2z"/><path d="M10 25c-3.3 0-6-.9-6-2v2c0 1.1 2.7 2 6 2s6-.9 6-2v-2c0 1.1-2.7 2-6 2z"/><path d="M10 28c-3.3 0-6-.9-6-2v2c0 1.1 2.7 2 6 2s6-.9 6-2v-2c0 1.1-2.7 2-6 2z"/><path d="M10 31c-3.3 0-6-.9-6-2v2c0 1.1 2.7 2 6 2s6-.9 6-2v-2c0 1.1-2.7 2-6 2z"/><path d="M10 34c-3.3 0-6-.9-6-2v2c0 1.1 2.7 2 6 2s6-.9 6-2v-2c0 1.1-2.7 2-6 2z"/><path d="M10 37c-3.3 0-6-.9-6-2v2c0 1.1 2.7 2 6 2s6-.9 6-2v-2c0 1.1-2.7 2-6 2z"/><path d="M10 40c-3.3 0-6-.9-6-2v2c0 1.1 2.7 2 6 2s6-.9 6-2v-2c0 1.1-2.7 2-6 2z"/></g><g fill="#FFC107"><ellipse cx="10" cy="14" rx="6" ry="2"/><path d="M10 18c-2.8 0-5.1-.6-5.8-1.5-.1.2-.2.3-.2.5 0 1.1 2.7 2 6 2s6-.9 6-2c0-.2-.1-.3-.2-.5-.7.9-3 1.5-5.8 1.5zM10 21c-2.8 0-5.1-.6-5.8-1.5-.1.2-.2.3-.2.5 0 1.1 2.7 2 6 2s6-.9 6-2c0-.2-.1-.3-.2-.5-.7.9-3 1.5-5.8 1.5zM10 24c-2.8 0-5.1-.6-5.8-1.5-.1.2-.2.3-.2.5 0 1.1 2.7 2 6 2s6-.9 6-2c0-.2-.1-.3-.2-.5-.7.9-3 1.5-5.8 1.5zM10 27c-2.8 0-5.1-.6-5.8-1.5-.1.2-.2.3-.2.5 0 1.1 2.7 2 6 2s6-.9 6-2c0-.2-.1-.3-.2-.5-.7.9-3 1.5-5.8 1.5zM10 30c-2.8 0-5.1-.6-5.8-1.5-.1.2-.2.3-.2.5 0 1.1 2.7 2 6 2s6-.9 6-2c0-.2-.1-.3-.2-.5-.7.9-3 1.5-5.8 1.5zM10 33c-2.8 0-5.1-.6-5.8-1.5-.1.2-.2.3-.2.5 0 1.1 2.7 2 6 2s6-.9 6-2c0-.2-.1-.3-.2-.5-.7.9-3 1.5-5.8 1.5zM10 36c-2.8 0-5.1-.6-5.8-1.5-.1.2-.2.3-.2.5 0 1.1 2.7 2 6 2s6-.9 6-2c0-.2-.1-.3-.2-.5-.7.9-3 1.5-5.8 1.5zM10 39c-2.8 0-5.1-.6-5.8-1.5-.1.2-.2.3-.2.5 0 1.1 2.7 2 6 2s6-.9 6-2c0-.2-.1-.3-.2-.5-.7.9-3 1.5-5.8 1.5z"/></g><g fill="#FFA000"><path d="M24 28c-3.3 0-6-.9-6-2v2c0 1.1 2.7 2 6 2s6-.9 6-2v-2c0 1.1-2.7 2-6 2z"/><path d="M24 25c-3.3 0-6-.9-6-2v2c0 1.1 2.7 2 6 2s6-.9 6-2v-2c0 1.1-2.7 2-6 2zM24 31c-3.3 0-6-.9-6-2v2c0 1.1 2.7 2 6 2s6-.9 6-2v-2c0 1.1-2.7 2-6 2z"/><path d="M24 34c-3.3 0-6-.9-6-2v2c0 1.1 2.7 2 6 2s6-.9 6-2v-2c0 1.1-2.7 2-6 2z"/><path d="M24 37c-3.3 0-6-.9-6-2v2c0 1.1 2.7 2 6 2s6-.9 6-2v-2c0 1.1-2.7 2-6 2z"/><path d="M24 40c-3.3 0-6-.9-6-2v2c0 1.1 2.7 2 6 2s6-.9 6-2v-2c0 1.1-2.7 2-6 2z"/></g><g fill="#FFC107"><ellipse cx="24" cy="23" rx="6" ry="2"/><path d="M24 27c-2.8 0-5.1-.6-5.8-1.5-.1.2-.2.3-.2.5 0 1.1 2.7 2 6 2s6-.9 6-2c0-.2-.1-.3-.2-.5-.7.9-3 1.5-5.8 1.5zM24 30c-2.8 0-5.1-.6-5.8-1.5-.1.2-.2.3-.2.5 0 1.1 2.7 2 6 2s6-.9 6-2c0-.2-.1-.3-.2-.5-.7.9-3 1.5-5.8 1.5zM24 33c-2.8 0-5.1-.6-5.8-1.5-.1.2-.2.3-.2.5 0 1.1 2.7 2 6 2s6-.9 6-2c0-.2-.1-.3-.2-.5-.7.9-3 1.5-5.8 1.5zM24 36c-2.8 0-5.1-.6-5.8-1.5-.1.2-.2.3-.2.5 0 1.1 2.7 2 6 2s6-.9 6-2c0-.2-.1-.3-.2-.5-.7.9-3 1.5-5.8 1.5zM24 39c-2.8 0-5.1-.6-5.8-1.5-.1.2-.2.3-.2.5 0 1.1 2.7 2 6 2s6-.9 6-2c0-.2-.1-.3-.2-.5-.7.9-3 1.5-5.8 1.5z"/></g></svg>