<svg xmlns="http://www.w3.org/2000/svg" viewBox="0 0 48 48"><path fill="#e38939" d="M12 40V8c0-2.2 1.8-4 4-4h16c2.2 0 4 1.8 4 4v32c0 2.2-1.8 4-4 4H16c-2.2 0-4-1.8-4-4"/><path fill="#fff3e0" d="M32 7H16c-.6 0-1 .4-1 1v29c0 .6.4 1 1 1h16c.6 0 1-.4 1-1V8c0-.6-.4-1-1-1"/><circle cx="24" cy="41" r="1.5" fill="#a6642a"/><circle cx="24" cy="23" r="2" fill="#e91e63"/><circle cx="24" cy="23" r="4" fill="none" stroke="#f48fb1" stroke-miterlimit="10" stroke-width="2"/><circle cx="24" cy="23" r="6.5" fill="none" stroke="#f8bbd0" stroke-miterlimit="10"/></svg>